<svg xmlns="http://www.w3.org/2000/svg" width="20" height="20" viewBox="0 0 20 20"><g><g><path fill="#c1c1c1" d="M19.48 9.994c0 5.238-4.247 9.485-9.486 9.485C4.757 19.48.51 15.232.51 9.994.51 4.756 4.757.509 9.994.509c5.239 0 9.486 4.247 9.486 9.485zm-7.348 4.55c-.085.04-.22.086-.406.137a1.886 1.886 0 0 1-.504.079c-.313 0-.536-.052-.663-.156-.129-.104-.192-.3-.192-.584 0-.115.02-.283.059-.504.04-.22.084-.417.134-.59l.607-2.153c.06-.199.1-.414.123-.651.022-.236.033-.402.033-.496 0-.452-.16-.821-.477-1.105-.32-.282-.772-.425-1.359-.425-.325 0-.67.057-1.036.175-.365.116-.748.255-1.148.418l-.162.665c.117-.045.26-.09.425-.141.166-.05.328-.073.486-.073.322 0 .538.054.653.162.113.108.17.301.17.576 0 .154-.018.323-.054.508-.037.183-.084.38-.138.588l-.61 2.158c-.055.228-.094.43-.119.61-.024.18-.036.356-.036.53 0 .443.163.808.49 1.097.328.287.788.433 1.38.433.384 0 .722-.051 1.013-.152.291-.102.68-.248 1.168-.44zm.155-9.028c0-.373-.142-.694-.425-.96a1.441 1.441 0 0 0-1.025-.4c-.397.001-.741.134-1.027.4a1.275 1.275 0 0 0-.428.96c0 .375.143.695.428.959.286.263.63.395 1.027.395.4 0 .742-.132 1.025-.395.283-.264.425-.583.425-.959z"/></g></g></svg>