<svg xmlns="http://www.w3.org/2000/svg" width="13" height="13" viewBox="0 0 13 13"><g><g><path fill="#fff" d="M12.25 9.936v2.297a.767.767 0 0 1-.767.767H.767A.767.767 0 0 1 0 12.233V9.936a4.588 4.588 0 0 1 2.516-4.092 3.812 3.812 0 0 1-.22-1.266 3.828 3.828 0 0 1 7.657 0c0 .444-.08.87-.219 1.266a4.588 4.588 0 0 1 2.516 4.092zM3.828 4.578a2.3 2.3 0 0 0 2.297 2.297 2.3 2.3 0 0 0 2.297-2.297 2.3 2.3 0 0 0-2.297-2.297 2.3 2.3 0 0 0-2.297 2.297zm6.89 5.358a3.063 3.063 0 0 0-1.774-2.774 3.814 3.814 0 0 1-5.638 0 3.063 3.063 0 0 0-1.775 2.774v1.532h9.188z"/></g></g></svg>