<svg xmlns="http://www.w3.org/2000/svg" width="28" height="28" viewBox="0 0 28 28"><g><g><path fill="#3d3741" d="M27.502 13.783c0 7.599-6.182 13.78-13.78 13.78-7.599 0-13.78-6.181-13.78-13.78 0-7.598 6.181-13.78 13.78-13.78 7.598 0 13.78 6.182 13.78 13.78zm-6.05-4.793a6.315 6.315 0 0 1-1.822.499 3.185 3.185 0 0 0 1.395-1.755 6.322 6.322 0 0 1-2.015.77 3.172 3.172 0 0 0-5.405 2.893 9.005 9.005 0 0 1-6.537-3.315 3.158 3.158 0 0 0-.429 1.595c0 1.1.56 2.072 1.41 2.64a3.161 3.161 0 0 1-1.435-.396l-.001.04a3.173 3.173 0 0 0 2.544 3.11 3.2 3.2 0 0 1-1.432.053 3.175 3.175 0 0 0 2.963 2.203 6.366 6.366 0 0 1-4.696 1.313 8.971 8.971 0 0 0 4.862 1.425c5.835 0 9.025-4.832 9.025-9.024 0-.138-.003-.275-.01-.411a6.412 6.412 0 0 0 1.582-1.64z"/></g></g></svg>