<svg xmlns="http://www.w3.org/2000/svg" width="13" height="11" viewBox="0 0 13 11"><g><g><path fill="#fff" d="M6.145 1.506L1.51 4.778a.34.34 0 0 0-.145.279v4.236c0 .188.153.341.342.341H2.73V5.88c0-.188.153-.341.341-.341h2.049c.188 0 .341.153.341.341v3.755h5.12a.341.341 0 0 0 .342-.341V5.057a.341.341 0 0 0-.144-.28zm.124-1.43c.141 0 .279.043.394.125L12 3.968c.182.128.29.336.29.558v5.79a.683.683 0 0 1-.683.684H.683A.683.683 0 0 1 0 10.317V4.526c0-.222.108-.43.289-.558L5.626.201A.683.683 0 0 1 6.02.076zm2.948 6.827H7.17a.341.341 0 0 1-.342-.341v-.683c0-.188.153-.341.342-.341h2.048c.189 0 .342.153.342.341v.683a.341.341 0 0 1-.342.341z"/></g></g></svg>