<svg xmlns="http://www.w3.org/2000/svg" width="18" height="18" viewBox="0 0 18 18"><g><g><path fill="#55676e" d="M6.738 2.514c2.37 0 4.3 1.94 4.3 4.324 0 .897-.277 1.762-.798 2.499l-.423.598-.594.425a4.249 4.249 0 0 1-2.485.802c-2.37 0-4.3-1.94-4.3-4.324 0-2.385 1.93-4.324 4.3-4.324zM.289 6.838c0 3.582 2.887 6.486 6.449 6.486a6.388 6.388 0 0 0 3.731-1.202l5.18 5.208a1.07 1.07 0 0 0 1.522 0c.42-.422.42-1.108 0-1.53l-5.18-5.21a6.474 6.474 0 0 0 1.196-3.752C13.187 3.256 10.3.35 6.737.35 3.178.351.29 3.256.29 6.838z"/></g></g></svg>